<?xml version="1.0" standalone="no"?>
<!DOCTYPE svg PUBLIC "-//W3C//DTD SVG 20010904//EN"
 "http://www.w3.org/TR/2001/REC-SVG-20010904/DTD/svg10.dtd">
<svg version="1.0" xmlns="http://www.w3.org/2000/svg"
 width="400.000000pt" height="400.000000pt" viewBox="0 0 400.000000 400.000000"
 preserveAspectRatio="xMidYMid meet">

<g transform="translate(0.000000,400.000000) scale(0.100000,-0.100000)"
fill="#FBA8FA" stroke="none">
<path d="M2726 3578 c-54 -56 -123 -139 -155 -185 -57 -81 -59 -83 -73 -62
l-14 22 -23 -24 c-20 -21 -22 -31 -16 -76 6 -47 4 -53 -12 -54 -12 0 -8 -5 13
-16 l32 -16 -28 -41 c-87 -130 -105 -213 -97 -441 6 -168 16 -234 54 -350 25
-79 84 -181 113 -196 124 -64 228 -47 309 49 19 23 39 42 44 42 14 0 97 -71
175 -149 87 -89 169 -234 171 -307 1 -21 0 -21 -61 -8 -356 73 -694 88 -923
39 -38 -8 -126 -26 -195 -41 -157 -33 -230 -64 -230 -96 0 -26 75 -160 124
-222 17 -22 65 -74 107 -115 66 -66 104 -94 231 -170 16 -9 28 -19 28 -22 0
-14 -126 -62 -227 -86 -115 -28 -314 -43 -336 -25 -7 6 -28 13 -47 17 -60 11
-112 48 -137 95 -45 85 -13 211 76 300 52 52 56 60 16 34 -14 -9 -33 -13 -47
-9 -20 5 -21 4 -5 -5 16 -10 16 -13 -7 -43 -40 -53 -76 -142 -76 -189 0 -44
26 -106 61 -144 15 -16 16 -23 6 -33 -10 -11 -8 -11 9 -1 17 10 27 9 65 -9 71
-36 200 -48 301 -29 122 23 266 65 322 93 l49 25 96 -46 c53 -25 104 -50 113
-55 28 -15 64 -10 102 12 40 24 42 21 21 -39 -8 -24 -16 -75 -16 -115 -1 -76
20 -152 67 -232 64 -111 100 -377 71 -523 l-14 -72 34 0 c33 0 33 0 13 20 -15
15 -18 27 -13 52 9 45 10 207 1 293 -5 44 -4 63 1 50 13 -27 13 -15 0 45 -12
58 -34 70 -25 13 3 -22 -6 -4 -22 42 -15 44 -42 109 -60 145 -17 36 -34 83
-37 105 l-6 40 32 -60 c17 -33 44 -98 59 -145 16 -47 29 -77 29 -66 1 29 -57
193 -86 243 -30 51 -33 117 -8 177 14 32 89 96 114 96 6 0 44 -11 85 -25 41
-14 121 -32 177 -41 112 -18 179 -12 250 22 64 31 174 153 155 172 -3 3 -6 0
-6 -7 0 -19 -114 -127 -161 -152 -38 -20 -58 -24 -144 -23 -115 0 -196 16
-278 52 l-58 26 39 25 c72 48 137 101 175 144 68 75 155 191 189 249 18 32 39
58 46 58 19 0 93 -67 137 -124 46 -61 65 -113 66 -185 1 -43 3 -50 9 -31 4 14
8 39 9 57 1 17 7 34 14 36 7 3 5 6 -5 6 -11 1 -21 14 -27 35 -15 56 -101 167
-160 206 -23 15 -23 21 -6 91 6 23 2 29 -22 41 -15 8 -27 20 -25 26 1 7 -2 12
-7 12 -5 0 -12 16 -15 35 -12 61 -86 193 -144 258 -31 34 -60 64 -65 65 -4 2
-36 28 -71 59 l-63 54 19 72 c10 40 23 111 28 159 6 48 15 99 22 113 9 21 8
33 -9 68 -12 23 -24 70 -28 105 -6 57 -21 93 -77 196 -9 17 -17 33 -18 36 0 3
41 4 91 2 56 -2 96 1 102 7 8 8 -5 11 -45 11 -57 0 -204 38 -261 67 -58 29
-137 103 -137 128 0 16 25 46 87 102 48 43 105 94 126 113 61 55 84 64 113 45
13 -8 24 -19 24 -23 0 -19 292 -262 352 -293 13 -6 32 -19 43 -29 18 -15 74
-48 160 -93 144 -75 297 -121 442 -133 l83 -7 0 56 0 55 -84 77 c-47 42 -95
84 -108 93 -13 9 -30 23 -38 32 -8 9 -31 27 -50 40 -19 13 -42 30 -50 37 -31
27 -107 80 -155 107 -27 16 -57 34 -65 41 -25 21 -252 135 -268 135 -8 0 -29
8 -46 19 -17 10 -53 25 -81 34 -27 9 -78 26 -113 37 -105 34 -107 33 -216 -82z
m-171 -478 c8 0 18 -7 23 -16 5 -9 11 -14 14 -12 2 1 27 -7 54 -18 27 -12 74
-29 104 -39 l56 -17 47 -98 c33 -69 49 -116 53 -159 6 -54 5 -61 -10 -55 -28
11 -18 -10 14 -28 27 -15 39 -45 24 -60 -3 -4 -20 -2 -37 3 -31 9 -105 22
-197 35 -58 8 -209 7 -284 -1 l-59 -7 5 146 c3 91 10 152 17 159 6 6 11 19 11
29 0 27 45 123 77 162 l28 36 23 -30 c13 -17 30 -30 37 -30z m-25 -500 c0 -60
77 -66 100 -8 8 18 14 34 15 36 4 5 226 -29 251 -38 20 -8 24 -16 24 -53 0
-25 -7 -84 -15 -133 -33 -189 -132 -275 -279 -244 -69 14 -146 72 -177 132
-38 74 -69 181 -76 255 l-6 72 34 4 c19 2 55 5 82 5 46 2 47 1 47 -28z m80 0
c0 -5 -4 -10 -10 -10 -5 0 -10 5 -10 10 0 6 5 10 10 10 6 0 10 -4 10 -10z"/>
<path d="M1215 3639 c-27 -10 -72 -30 -100 -43 -78 -38 -359 -149 -540 -212
-103 -36 -110 -39 -230 -72 -38 -11 -81 -24 -95 -29 -14 -6 -59 -15 -100 -22
-90 -15 -124 -30 -128 -57 -9 -59 183 -133 348 -134 245 -1 554 97 755 239 40
29 118 87 191 142 10 8 185 -103 192 -122 2 -5 9 -9 16 -9 7 0 28 -13 46 -30
18 -16 36 -30 39 -30 3 0 26 -19 51 -41 37 -32 42 -41 30 -49 -23 -15 4 -12
59 5 l47 16 -76 81 c-92 99 -254 262 -301 303 -102 91 -119 96 -204 64z"/>
<path d="M2023 3373 c-40 -62 -119 -143 -140 -143 -6 0 -14 -8 -17 -17 -10
-30 -142 -83 -205 -83 -24 0 -24 0 -5 15 27 20 10 19 -34 -4 -20 -10 -55 -22
-77 -26 -30 -6 -35 -9 -22 -14 17 -6 16 -8 -8 -19 -15 -7 -25 -15 -22 -18 3
-3 18 1 34 9 20 11 58 15 128 14 128 -1 235 32 338 105 30 21 63 17 53 -7 -3
-8 0 -14 6 -12 16 3 68 -75 62 -93 -3 -8 -2 -11 2 -7 11 10 62 -100 73 -158
16 -77 22 -193 11 -200 -6 -4 -8 -11 -5 -16 4 -5 -6 -9 -20 -9 -15 0 -24 -4
-20 -10 4 -6 10 -8 14 -5 11 6 46 -21 46 -37 1 -22 -10 -24 -97 -16 -166 13
-456 4 -562 -18 l-29 -6 6 83 c8 120 34 236 66 299 16 30 32 66 36 80 12 40
-45 -47 -62 -95 -45 -128 -82 -405 -53 -405 6 0 10 4 10 8 0 17 52 31 140 38
87 7 90 6 90 -15 0 -30 35 -61 68 -61 36 0 62 28 62 65 l0 28 147 -8 c80 -4
152 -9 159 -12 27 -10 -10 -193 -60 -292 -49 -95 -107 -145 -189 -160 -68 -13
-143 -4 -197 24 -34 17 -105 86 -133 129 -11 15 -21 25 -24 22 -3 -2 4 -17 14
-33 11 -15 31 -46 46 -67 38 -58 124 -124 174 -134 51 -11 129 1 154 24 10 9
22 13 27 10 12 -7 81 75 123 145 43 73 66 143 79 241 6 46 16 93 23 106 8 18
8 28 -1 42 -7 11 -12 50 -12 87 -1 159 -56 322 -147 437 -18 23 -33 44 -33 49
0 4 42 8 93 9 l92 2 -83 3 -83 4 20 25 c23 29 19 76 -7 107 -21 23 -29 22 -49
-10z m-153 -789 c0 -9 -5 -14 -12 -12 -18 6 -21 28 -4 28 9 0 16 -7 16 -16z"/>
<path d="M2268 3233 c6 -2 18 -2 25 0 6 3 1 5 -13 5 -14 0 -19 -2 -12 -5z"/>
<path d="M2328 3223 c6 -2 18 -2 25 0 6 3 1 5 -13 5 -14 0 -19 -2 -12 -5z"/>
<path d="M1384 2992 c-53 -42 -81 -72 -68 -72 5 0 28 18 51 39 23 22 50 44 60
50 10 5 15 12 12 16 -4 3 -28 -12 -55 -33z"/>
<path d="M1255 2860 c-3 -5 -1 -10 4 -10 6 0 11 5 11 10 0 6 -2 10 -4 10 -3 0
-8 -4 -11 -10z"/>
<path d="M1148 2637 c-3 -19 -2 -25 4 -19 6 6 8 18 6 28 -3 14 -5 12 -10 -9z"/>
<path d="M1120 2566 c0 -8 4 -17 9 -20 5 -4 7 3 4 14 -6 23 -13 26 -13 6z"/>
<path d="M1110 2520 c0 -19 3 -21 12 -12 9 9 9 15 0 24 -9 9 -12 7 -12 -12z"/>
<path d="M1531 2514 c0 -11 3 -14 6 -6 3 7 2 16 -1 19 -3 4 -6 -2 -5 -13z"/>
<path d="M1100 2445 c0 -27 2 -46 5 -44 7 8 9 78 2 85 -4 4 -7 -14 -7 -41z"/>
<path d="M1551 2434 c0 -11 3 -14 6 -6 3 7 2 16 -1 19 -3 4 -6 -2 -5 -13z"/>
<path d="M1091 2263 c2 -146 7 -138 11 20 2 59 0 107 -4 107 -5 0 -7 -57 -7
-127z"/>
<path d="M1941 2060 c-13 -11 -19 -20 -14 -20 6 0 18 9 28 20 23 25 17 25 -14
0z"/>
<path d="M2570 2076 c0 -2 7 -7 16 -10 8 -3 12 -2 9 4 -6 10 -25 14 -25 6z"/>
<path d="M1875 2015 c-16 -8 -23 -14 -14 -15 8 0 24 7 35 15 23 18 18 18 -21
0z"/>
<path d="M2727 2023 c18 -2 50 -2 70 0 21 2 7 4 -32 4 -38 0 -55 -2 -38 -4z"/>
<path d="M1697 1999 c7 -7 15 -10 18 -7 3 3 -2 9 -12 12 -14 6 -15 5 -6 -5z"/>
<path d="M1818 1993 c7 -3 16 -2 19 1 4 3 -2 6 -13 5 -11 0 -14 -3 -6 -6z"/>
<path d="M1743 1983 c9 -2 23 -2 30 0 6 3 -1 5 -18 5 -16 0 -22 -2 -12 -5z"/>
<path d="M1101 1904 c0 -11 3 -14 6 -6 3 7 2 16 -1 19 -3 4 -6 -2 -5 -13z"/>
<path d="M1078 1797 c-3 -19 -2 -25 4 -19 6 6 8 18 6 28 -3 14 -5 12 -10 -9z"/>
<path d="M1061 1734 c0 -11 3 -14 6 -6 3 7 2 16 -1 19 -3 4 -6 -2 -5 -13z"/>
<path d="M1041 1684 c0 -11 3 -14 6 -6 3 7 2 16 -1 19 -3 4 -6 -2 -5 -13z"/>
<path d="M1033 1623 c0 -18 5 -29 9 -25 5 5 4 19 -1 33 -10 23 -10 22 -8 -8z"/>
<path d="M1115 1625 c-22 -14 -45 -31 -51 -39 -6 -8 -17 -16 -24 -18 -29 -6
-78 -80 -88 -133 -13 -63 0 -131 29 -158 12 -12 19 -27 16 -38 -3 -11 -1 -19
4 -19 5 0 9 6 9 13 0 9 25 12 93 12 66 0 103 5 130 17 51 23 39 40 -15 21 -24
-8 -70 -17 -103 -20 -49 -3 -66 0 -93 17 -35 22 -62 72 -62 116 0 62 91 173
178 218 17 9 32 21 32 26 0 15 -11 12 -55 -15z"/>
<path d="M1378 1503 c18 -2 45 -2 60 0 15 2 0 4 -33 4 -33 0 -45 -2 -27 -4z"/>
<path d="M1250 1483 c-101 -47 -120 -57 -120 -65 0 -12 11 -10 29 6 9 7 49 25
89 39 48 16 67 27 57 31 -9 3 -17 6 -18 5 -1 0 -18 -8 -37 -16z"/>
<path d="M1498 1483 c6 -2 18 -2 25 0 6 3 1 5 -13 5 -14 0 -19 -2 -12 -5z"/>
<path d="M1548 1473 c7 -3 16 -2 19 1 4 3 -2 6 -13 5 -11 0 -14 -3 -6 -6z"/>
<path d="M3295 1430 c-4 -6 -3 -16 3 -22 6 -6 12 -6 17 2 4 6 3 16 -3 22 -6 6
-12 6 -17 -2z"/>
<path d="M3365 1290 c-3 -5 -1 -10 4 -10 6 0 11 5 11 10 0 6 -2 10 -4 10 -3 0
-8 -4 -11 -10z"/>
<path d="M1769 1254 c-10 -13 -10 -17 1 -24 17 -10 30 -4 30 15 0 22 -16 26
-31 9z"/>
<path d="M992 1180 c0 -19 2 -27 5 -17 2 9 2 25 0 35 -3 9 -5 1 -5 -18z"/>
<path d="M970 1069 c0 -30 5 -61 10 -69 7 -10 8 6 4 50 -8 82 -14 90 -14 19z"/>
<path d="M963 795 c0 -116 2 -198 4 -182 5 35 21 35 34 0 12 -32 4 -90 -13
-95 -10 -4 29 -176 53 -232 8 -18 9 -17 7 9 -1 18 8 46 25 70 14 22 34 69 43
105 32 125 1 244 -93 361 -41 50 -49 66 -54 116 -3 32 -6 -36 -6 -152z"/>
<path d="M1322 785 c0 -16 2 -22 5 -12 2 9 2 23 0 30 -3 6 -5 -1 -5 -18z"/>
<path d="M1312 720 c0 -19 2 -27 5 -17 2 9 2 25 0 35 -3 9 -5 1 -5 -18z"/>
<path d="M1441 734 c0 -11 3 -14 6 -6 3 7 2 16 -1 19 -3 4 -6 -2 -5 -13z"/>
<path d="M1416 644 c-9 -37 -15 -68 -13 -71 3 -2 12 26 21 63 9 37 15 68 13
71 -3 2 -12 -26 -21 -63z"/>
<path d="M1303 635 c0 -22 2 -30 4 -17 2 12 2 30 0 40 -3 9 -5 -1 -4 -23z"/>
<path d="M1391 544 c0 -11 3 -14 6 -6 3 7 2 16 -1 19 -3 4 -6 -2 -5 -13z"/>
<path d="M1284 415 c0 -72 1 -99 3 -62 2 37 2 96 0 130 -2 34 -3 4 -3 -68z"/>
<path d="M1382 500 c0 -14 2 -19 5 -12 2 6 2 18 0 25 -3 6 -5 1 -5 -13z"/>
<path d="M1362 435 c0 -16 2 -22 5 -12 2 9 2 23 0 30 -3 6 -5 -1 -5 -18z"/>
<path d="M2811 440 c-1 -17 25 -120 32 -127 8 -7 57 8 57 18 0 5 -11 9 -24 9
-21 0 -27 9 -44 58 -11 31 -21 50 -21 42z"/>
<path d="M1353 355 c0 -27 2 -38 4 -22 2 15 2 37 0 50 -2 12 -4 0 -4 -28z"/>
<path d="M2910 347 c0 -2 11 -16 25 -31 18 -20 24 -34 20 -49 -9 -30 -42 -57
-71 -57 -22 0 -23 -1 -8 -35 19 -47 18 -71 -6 -95 -20 -20 -20 -20 0 -20 24 0
35 36 26 90 -6 38 -5 40 31 57 31 15 39 24 41 50 4 38 -10 68 -38 83 -11 6
-20 9 -20 7z"/>
<path d="M1342 263 l-2 -43 39 0 c22 0 48 -3 58 -6 15 -5 15 -4 3 5 -8 6 -32
11 -52 11 -35 0 -37 2 -41 38 l-4 37 -1 -42z"/>
<path d="M1050 250 c0 -5 5 -10 10 -10 6 0 10 5 10 10 0 6 -4 10 -10 10 -5 0
-10 -4 -10 -10z"/>
<path d="M1198 236 c-17 -8 -24 -21 -26 -49 -4 -43 9 -64 41 -69 15 -2 24 -12
27 -33 6 -30 6 -30 13 -5 10 38 10 38 -33 50 -36 10 -40 14 -40 43 0 53 11 61
70 54 59 -7 62 -4 8 11 -25 7 -43 6 -60 -2z"/>
<path d="M944 225 c8 -8 18 -15 22 -15 3 0 1 7 -6 15 -7 8 -17 15 -22 15 -5 0
-3 -7 6 -15z"/>
<path d="M976 189 c3 -5 12 -9 21 -9 19 0 9 13 -12 16 -8 1 -13 -2 -9 -7z"/>
<path d="M1085 160 c12 -94 15 -100 41 -100 13 0 24 1 24 3 0 2 -16 35 -35 73
l-36 69 6 -45z"/>
<path d="M941 174 c0 -11 3 -14 6 -6 3 7 2 16 -1 19 -3 4 -6 -2 -5 -13z"/>
<path d="M951 140 c1 -8 4 -26 8 -40 5 -19 8 -21 13 -9 3 8 0 26 -8 40 -7 13
-13 17 -13 9z"/>
<path d="M1338 108 c2 -11 8 -16 11 -11 3 4 10 11 14 14 4 4 -1 9 -11 11 -15
4 -18 1 -14 -14z"/>
<path d="M1457 123 c-4 -3 -24 -9 -44 -13 -36 -7 -36 -8 -7 -9 16 0 39 6 50
14 10 8 16 15 13 15 -3 0 -9 -3 -12 -7z"/>
<path d="M880 69 c0 -5 5 -7 10 -4 6 3 10 8 10 11 0 2 -4 4 -10 4 -5 0 -10 -5
-10 -11z"/>
</g>
</svg>
